<svg width="18" height="12" viewBox="0 0 18 12" fill="none" xmlns="http://www.w3.org/2000/svg">
<path d="M17.6253 0H15.8675C15.748 0 15.6355 0.0585939 15.5651 0.154688L8.90655 9.33281L2.24795 0.154688C2.17764 0.0585939 2.06514 0 1.94561 0H0.187797C0.0354531 0 -0.0536094 0.173438 0.0354531 0.297657L8.29952 11.6906C8.59952 12.1031 9.21358 12.1031 9.51123 11.6906L17.7753 0.297657C17.8667 0.173438 17.7776 0 17.6253 0Z" fill="black" fill-opacity="0.7"/>
<path d="M17.6253 0H15.8675C15.748 0 15.6355 0.0585939 15.5651 0.154688L8.90655 9.33281L2.24795 0.154688C2.17764 0.0585939 2.06514 0 1.94561 0H0.187797C0.0354531 0 -0.0536094 0.173438 0.0354531 0.297657L8.29952 11.6906C8.59952 12.1031 9.21358 12.1031 9.51123 11.6906L17.7753 0.297657C17.8667 0.173438 17.7776 0 17.6253 0Z" fill="#C7D2D6"/>
</svg>
